<svg xmlns="http://www.w3.org/2000/svg" width="200" height="50" viewBox="0 0 200 50">
  <path d="M25 10c-8.28 0-15 6.72-15 15 0 8.28 6.72 15 15 15 8.28 0 15-6.72 15-15 0-8.28-6.72-15-15-15zm0 25c-5.52 0-10-4.48-10-10 0-5.52 4.48-10 10-10 5.52 0 10 4.48 10 10 0 5.52-4.48 10-10 10z" fill="#7a6245"/>
  <path d="M25 15c-5.52 0-10 4.48-10 10 0 5.52 4.48 10 10 10 5.52 0 10-4.48 10-10 0-5.52-4.48-10-10-10zm0 5a5 5 0 110 10 5 5 0 010-10z" fill="#9a7e5e"/>
  <text x="50" y="32" font-family="Arial, sans-serif" font-size="20" font-weight="bold" fill="#3f3322">MushroomWise</text>
</svg>
