<svg xmlns="http://www.w3.org/2000/svg" width="32" height="32" viewBox="0 0 32 32" fill="none">
  <circle cx="16" cy="16" r="16" fill="#0F766E"/>
  <path d="M16 4C11.5817 4 8 7.58172 8 12C8 13.2447 8.28452 14.4244 8.8 15.4722C9.22861 16.3428 9.81853 17.1135 10.5237 17.75C8.91699 18.7458 8 20.2892 8 22C8 24.7614 10.7909 27 14.2857 27H17.7143C21.2091 27 24 24.7614 24 22C24 20.2892 23.083 18.7458 21.4763 17.75C22.1815 17.1135 22.7714 16.3428 23.2 15.4722C23.7155 14.4244 24 13.2447 24 12C24 7.58172 20.4183 4 16 4Z" fill="#99F6E4"/>
  <path d="M16 10C14.8954 10 14 10.8954 14 12C14 13.1046 14.8954 14 16 14C17.1046 14 18 13.1046 18 12C18 10.8954 17.1046 10 16 10Z" fill="#0F766E"/>
  <path d="M14 18.5C14 19.3284 14.6716 20 15.5 20C16.3284 20 17 19.3284 17 18.5C17 17.6716 16.3284 17 15.5 17C14.6716 17 14 17.6716 14 18.5Z" fill="#0F766E"/>
  <path d="M19 17.5C19 18.3284 19.6716 19 20.5 19C21.3284 19 22 18.3284 22 17.5C22 16.6716 21.3284 16 20.5 16C19.6716 16 19 16.6716 19 17.5Z" fill="#0F766E"/>
  <path d="M10 19.5C10 20.3284 10.6716 21 11.5 21C12.3284 21 13 20.3284 13 19.5C13 18.6716 12.3284 18 11.5 18C10.6716 18 10 18.6716 10 19.5Z" fill="#0F766E"/>
</svg>
